<mxfile host="app.diagrams.net" modified="2023-12-09T09:25:32.844Z" agent="Mozilla/5.0 (Windows NT 10.0; Win64; x64) AppleWebKit/537.36 (KHTML, like Gecko) Chrome/119.0.0.0 Safari/537.36" etag="0uQDNcJamkCCCVEBJ1Qz" version="22.1.7" type="github" pages="2">
  <diagram name="第 1 页" id="_Za5BC0m-HuaRFZVXyjK">
    <mxGraphModel dx="1302" dy="682" grid="1" gridSize="10" guides="1" tooltips="1" connect="1" arrows="1" fold="1" page="1" pageScale="1" pageWidth="827" pageHeight="1169" math="0" shadow="0">
      <root>
        <mxCell id="0" />
        <mxCell id="1" parent="0" />
        <mxCell id="OLXgDvLFEpSDpQCb60n3-28" value="上海服装" style="rounded=1;whiteSpace=wrap;html=1;fontSize=14;verticalAlign=top;fillColor=none;" vertex="1" parent="1">
          <mxGeometry x="275" y="840" width="255" height="250" as="geometry" />
        </mxCell>
        <mxCell id="OLXgDvLFEpSDpQCb60n3-27" value="上海食品" style="rounded=1;whiteSpace=wrap;html=1;fontSize=14;verticalAlign=top;fillColor=none;" vertex="1" parent="1">
          <mxGeometry x="5" y="840" width="245" height="250" as="geometry" />
        </mxCell>
        <mxCell id="hfD9s6qf3FZ00KF--jr7-3" style="edgeStyle=orthogonalEdgeStyle;rounded=0;orthogonalLoop=1;jettySize=auto;html=1;exitX=1;exitY=0.5;exitDx=0;exitDy=0;entryX=0;entryY=0.5;entryDx=0;entryDy=0;" parent="1" source="hfD9s6qf3FZ00KF--jr7-1" target="hfD9s6qf3FZ00KF--jr7-2" edge="1">
          <mxGeometry relative="1" as="geometry" />
        </mxCell>
        <mxCell id="hfD9s6qf3FZ00KF--jr7-11" style="edgeStyle=orthogonalEdgeStyle;rounded=0;orthogonalLoop=1;jettySize=auto;html=1;exitX=0.5;exitY=0;exitDx=0;exitDy=0;entryX=0.5;entryY=1;entryDx=0;entryDy=0;" parent="1" source="hfD9s6qf3FZ00KF--jr7-1" target="hfD9s6qf3FZ00KF--jr7-10" edge="1">
          <mxGeometry relative="1" as="geometry" />
        </mxCell>
        <mxCell id="hfD9s6qf3FZ00KF--jr7-13" style="edgeStyle=orthogonalEdgeStyle;rounded=0;orthogonalLoop=1;jettySize=auto;html=1;exitX=1;exitY=0;exitDx=0;exitDy=0;entryX=0;entryY=1;entryDx=0;entryDy=0;" parent="1" source="hfD9s6qf3FZ00KF--jr7-1" target="hfD9s6qf3FZ00KF--jr7-9" edge="1">
          <mxGeometry relative="1" as="geometry" />
        </mxCell>
        <mxCell id="hfD9s6qf3FZ00KF--jr7-20" style="edgeStyle=orthogonalEdgeStyle;rounded=0;orthogonalLoop=1;jettySize=auto;html=1;exitX=0;exitY=0.5;exitDx=0;exitDy=0;entryX=1;entryY=0.5;entryDx=0;entryDy=0;" parent="1" source="hfD9s6qf3FZ00KF--jr7-1" target="hfD9s6qf3FZ00KF--jr7-16" edge="1">
          <mxGeometry relative="1" as="geometry" />
        </mxCell>
        <mxCell id="hfD9s6qf3FZ00KF--jr7-21" style="edgeStyle=orthogonalEdgeStyle;rounded=0;orthogonalLoop=1;jettySize=auto;html=1;exitX=0;exitY=0;exitDx=0;exitDy=0;entryX=1;entryY=1;entryDx=0;entryDy=0;" parent="1" source="hfD9s6qf3FZ00KF--jr7-1" target="hfD9s6qf3FZ00KF--jr7-18" edge="1">
          <mxGeometry relative="1" as="geometry" />
        </mxCell>
        <mxCell id="hfD9s6qf3FZ00KF--jr7-1" value="师傅" style="rounded=1;whiteSpace=wrap;html=1;" parent="1" vertex="1">
          <mxGeometry x="240" y="110" width="120" height="60" as="geometry" />
        </mxCell>
        <mxCell id="hfD9s6qf3FZ00KF--jr7-2" value="师傅不能跑" style="rounded=1;whiteSpace=wrap;html=1;" parent="1" vertex="1">
          <mxGeometry x="440" y="110" width="120" height="60" as="geometry" />
        </mxCell>
        <mxCell id="hfD9s6qf3FZ00KF--jr7-9" value="技术好" style="rounded=1;whiteSpace=wrap;html=1;" parent="1" vertex="1">
          <mxGeometry x="440" y="10" width="120" height="60" as="geometry" />
        </mxCell>
        <mxCell id="hfD9s6qf3FZ00KF--jr7-10" value="经验老道" style="rounded=1;whiteSpace=wrap;html=1;" parent="1" vertex="1">
          <mxGeometry x="240" y="10" width="120" height="60" as="geometry" />
        </mxCell>
        <mxCell id="hfD9s6qf3FZ00KF--jr7-16" value="需要安全不牵头" style="rounded=1;whiteSpace=wrap;html=1;" parent="1" vertex="1">
          <mxGeometry x="70" y="110" width="120" height="60" as="geometry" />
        </mxCell>
        <mxCell id="hfD9s6qf3FZ00KF--jr7-18" value="需要被尊重" style="rounded=1;whiteSpace=wrap;html=1;" parent="1" vertex="1">
          <mxGeometry x="70" y="20" width="120" height="60" as="geometry" />
        </mxCell>
        <mxCell id="OLXgDvLFEpSDpQCb60n3-9" style="rounded=0;orthogonalLoop=1;jettySize=auto;html=1;exitX=0;exitY=0.5;exitDx=0;exitDy=0;entryX=1;entryY=0.5;entryDx=0;entryDy=0;" edge="1" parent="1" source="hfD9s6qf3FZ00KF--jr7-19" target="OLXgDvLFEpSDpQCb60n3-6">
          <mxGeometry relative="1" as="geometry" />
        </mxCell>
        <mxCell id="hfD9s6qf3FZ00KF--jr7-19" value="me" style="rounded=1;whiteSpace=wrap;html=1;fontSize=14;" parent="1" vertex="1">
          <mxGeometry x="414" y="550" width="80" height="45" as="geometry" />
        </mxCell>
        <mxCell id="hfD9s6qf3FZ00KF--jr7-25" value="1. 给老板细节&lt;br&gt;2. 给老板feature&lt;br&gt;3. 给师傅 尊重和安全，不超车" style="text;html=1;strokeColor=none;fillColor=none;align=center;verticalAlign=middle;whiteSpace=wrap;rounded=0;" parent="1" vertex="1">
          <mxGeometry x="309" y="220" width="210" height="58" as="geometry" />
        </mxCell>
        <mxCell id="hfD9s6qf3FZ00KF--jr7-26" value="1. 所以我给idea bob 合作实现，可以获得一定的支持，但实现出来的东西质量有问题&lt;br&gt;2. 还是我出 idea 直接给领导报，自己+外包来实现，跑师傅前。工资高了但跑了对团队更伤" style="text;html=1;strokeColor=none;fillColor=none;align=center;verticalAlign=middle;whiteSpace=wrap;rounded=0;" parent="1" vertex="1">
          <mxGeometry x="50" y="220" width="210" height="90" as="geometry" />
        </mxCell>
        <mxCell id="OLXgDvLFEpSDpQCb60n3-1" value="外企 / 金融" style="ellipse;whiteSpace=wrap;html=1;fillColor=none;verticalAlign=top;fontSize=14;" vertex="1" parent="1">
          <mxGeometry y="400" width="360" height="165" as="geometry" />
        </mxCell>
        <mxCell id="OLXgDvLFEpSDpQCb60n3-2" value="互联网" style="ellipse;whiteSpace=wrap;html=1;fillColor=none;verticalAlign=top;fontSize=14;" vertex="1" parent="1">
          <mxGeometry y="595" width="360" height="150" as="geometry" />
        </mxCell>
        <mxCell id="OLXgDvLFEpSDpQCb60n3-3" value="资源" style="text;html=1;strokeColor=none;fillColor=none;align=center;verticalAlign=middle;whiteSpace=wrap;rounded=0;fontSize=16;" vertex="1" parent="1">
          <mxGeometry x="70" y="425" width="70" height="40" as="geometry" />
        </mxCell>
        <mxCell id="OLXgDvLFEpSDpQCb60n3-4" value="私人时间" style="text;html=1;strokeColor=none;fillColor=none;align=center;verticalAlign=middle;whiteSpace=wrap;rounded=0;fontSize=16;" vertex="1" parent="1">
          <mxGeometry x="230" y="425" width="70" height="40" as="geometry" />
        </mxCell>
        <mxCell id="OLXgDvLFEpSDpQCb60n3-5" value="技术" style="text;html=1;strokeColor=none;fillColor=none;align=center;verticalAlign=middle;whiteSpace=wrap;rounded=0;fontSize=16;" vertex="1" parent="1">
          <mxGeometry x="75" y="650" width="70" height="40" as="geometry" />
        </mxCell>
        <mxCell id="OLXgDvLFEpSDpQCb60n3-6" value="钱" style="text;html=1;strokeColor=none;fillColor=none;align=center;verticalAlign=middle;whiteSpace=wrap;rounded=0;fontSize=16;" vertex="1" parent="1">
          <mxGeometry x="205" y="650" width="70" height="40" as="geometry" />
        </mxCell>
        <mxCell id="OLXgDvLFEpSDpQCb60n3-7" value="people sklils" style="text;html=1;strokeColor=none;fillColor=none;align=center;verticalAlign=middle;whiteSpace=wrap;rounded=0;fontSize=16;labelBorderColor=none;" vertex="1" parent="1">
          <mxGeometry x="70" y="497.5" width="70" height="40" as="geometry" />
        </mxCell>
        <mxCell id="OLXgDvLFEpSDpQCb60n3-8" value="健康" style="text;html=1;strokeColor=none;fillColor=none;align=center;verticalAlign=middle;whiteSpace=wrap;rounded=0;fontSize=16;" vertex="1" parent="1">
          <mxGeometry x="230" y="497.5" width="70" height="40" as="geometry" />
        </mxCell>
        <mxCell id="OLXgDvLFEpSDpQCb60n3-10" style="rounded=0;orthogonalLoop=1;jettySize=auto;html=1;exitX=0;exitY=0.5;exitDx=0;exitDy=0;entryX=1;entryY=0.5;entryDx=0;entryDy=0;" edge="1" parent="1" source="hfD9s6qf3FZ00KF--jr7-19" target="OLXgDvLFEpSDpQCb60n3-8">
          <mxGeometry relative="1" as="geometry">
            <mxPoint x="-90" y="603" as="sourcePoint" />
            <mxPoint x="215" y="700" as="targetPoint" />
          </mxGeometry>
        </mxCell>
        <mxCell id="OLXgDvLFEpSDpQCb60n3-11" style="rounded=0;orthogonalLoop=1;jettySize=auto;html=1;exitX=0;exitY=0.5;exitDx=0;exitDy=0;entryX=1;entryY=0.5;entryDx=0;entryDy=0;" edge="1" parent="1" source="hfD9s6qf3FZ00KF--jr7-19" target="OLXgDvLFEpSDpQCb60n3-4">
          <mxGeometry relative="1" as="geometry">
            <mxPoint x="-50" y="623" as="sourcePoint" />
            <mxPoint x="240" y="548" as="targetPoint" />
          </mxGeometry>
        </mxCell>
        <mxCell id="OLXgDvLFEpSDpQCb60n3-13" value="上海科技" style="rounded=1;whiteSpace=wrap;html=1;fontSize=14;verticalAlign=top;fillColor=none;" vertex="1" parent="1">
          <mxGeometry x="550" y="530" width="270" height="250" as="geometry" />
        </mxCell>
        <mxCell id="OLXgDvLFEpSDpQCb60n3-14" value="广州" style="rounded=1;whiteSpace=wrap;html=1;fontSize=14;verticalAlign=top;fillColor=none;" vertex="1" parent="1">
          <mxGeometry x="550" y="357.5" width="270" height="132.5" as="geometry" />
        </mxCell>
        <mxCell id="OLXgDvLFEpSDpQCb60n3-15" value="安利" style="text;html=1;strokeColor=none;fillColor=none;align=center;verticalAlign=middle;whiteSpace=wrap;rounded=0;fontSize=16;" vertex="1" parent="1">
          <mxGeometry x="595" y="430" width="70" height="40" as="geometry" />
        </mxCell>
        <mxCell id="OLXgDvLFEpSDpQCb60n3-16" value="玛氏" style="text;html=1;strokeColor=none;fillColor=none;align=center;verticalAlign=middle;whiteSpace=wrap;rounded=0;fontSize=16;" vertex="1" parent="1">
          <mxGeometry x="705" y="430" width="70" height="40" as="geometry" />
        </mxCell>
        <mxCell id="OLXgDvLFEpSDpQCb60n3-17" value="汇丰" style="text;html=1;strokeColor=none;fillColor=none;align=center;verticalAlign=middle;whiteSpace=wrap;rounded=0;fontSize=16;" vertex="1" parent="1">
          <mxGeometry x="705" y="390" width="70" height="40" as="geometry" />
        </mxCell>
        <mxCell id="OLXgDvLFEpSDpQCb60n3-18" value="宝洁" style="text;html=1;strokeColor=none;fillColor=none;align=center;verticalAlign=middle;whiteSpace=wrap;rounded=0;fontSize=16;" vertex="1" parent="1">
          <mxGeometry x="595" y="390" width="70" height="40" as="geometry" />
        </mxCell>
        <mxCell id="OLXgDvLFEpSDpQCb60n3-19" value="苹果" style="text;html=1;strokeColor=none;fillColor=none;align=center;verticalAlign=middle;whiteSpace=wrap;rounded=0;fontSize=16;" vertex="1" parent="1">
          <mxGeometry x="595" y="565" width="70" height="40" as="geometry" />
        </mxCell>
        <mxCell id="OLXgDvLFEpSDpQCb60n3-20" value="特斯拉" style="text;html=1;strokeColor=none;fillColor=none;align=center;verticalAlign=middle;whiteSpace=wrap;rounded=0;fontSize=16;" vertex="1" parent="1">
          <mxGeometry x="705" y="565" width="70" height="40" as="geometry" />
        </mxCell>
        <mxCell id="OLXgDvLFEpSDpQCb60n3-21" value="科蒂集团" style="text;html=1;strokeColor=none;fillColor=none;align=center;verticalAlign=middle;whiteSpace=wrap;rounded=0;fontSize=16;" vertex="1" parent="1">
          <mxGeometry x="130" y="970" width="70" height="40" as="geometry" />
        </mxCell>
        <mxCell id="OLXgDvLFEpSDpQCb60n3-22" value="宾三得利" style="text;html=1;strokeColor=none;fillColor=none;align=center;verticalAlign=middle;whiteSpace=wrap;rounded=0;fontSize=16;" vertex="1" parent="1">
          <mxGeometry x="20" y="970" width="70" height="40" as="geometry" />
        </mxCell>
        <mxCell id="OLXgDvLFEpSDpQCb60n3-23" value="卡夫亨氏" style="text;html=1;strokeColor=none;fillColor=none;align=center;verticalAlign=middle;whiteSpace=wrap;rounded=0;fontSize=16;" vertex="1" parent="1">
          <mxGeometry x="130" y="930" width="70" height="40" as="geometry" />
        </mxCell>
        <mxCell id="OLXgDvLFEpSDpQCb60n3-24" value="达能" style="text;html=1;strokeColor=none;fillColor=none;align=center;verticalAlign=middle;whiteSpace=wrap;rounded=0;fontSize=16;" vertex="1" parent="1">
          <mxGeometry x="20" y="930" width="70" height="40" as="geometry" />
        </mxCell>
        <mxCell id="OLXgDvLFEpSDpQCb60n3-25" value="可口可乐" style="text;html=1;strokeColor=none;fillColor=none;align=center;verticalAlign=middle;whiteSpace=wrap;rounded=0;fontSize=16;" vertex="1" parent="1">
          <mxGeometry x="130" y="890" width="70" height="40" as="geometry" />
        </mxCell>
        <mxCell id="OLXgDvLFEpSDpQCb60n3-26" value="GE" style="text;html=1;strokeColor=none;fillColor=none;align=center;verticalAlign=middle;whiteSpace=wrap;rounded=0;fontSize=16;" vertex="1" parent="1">
          <mxGeometry x="595" y="605" width="70" height="40" as="geometry" />
        </mxCell>
        <mxCell id="OLXgDvLFEpSDpQCb60n3-29" value="&lt;div&gt;lululemon (耐用消费品 鞋服) : 3次&lt;/div&gt;&lt;div&gt;安踏(耐用消费品 鞋服) : 3次&lt;/div&gt;&lt;div&gt;Nike (耐用消费品 鞋服) : 4次+健身装备&lt;/div&gt;&lt;div&gt;ECCo(耐用消费品 鞋服) : 6次+&lt;/div&gt;&lt;div&gt;VF集团 (耐用消费品 鞋服) : 3次+300元关爱通卡&lt;/div&gt;&lt;div&gt;CELINE (耐用消费品 奢侈品) : 4次萧邦&lt;/div&gt;&lt;div&gt;choparda (耐用消费品 奢侈品) : 5次&lt;/div&gt;&lt;div&gt;Hugo Boss (耐用消费品 奢侈品) :3次&lt;/div&gt;&lt;div&gt;LV (耐用消费品 奢品) : 4次&lt;/div&gt;&lt;div&gt;开云集团 (Gucci，耐用消费品 奢侈品)) : 3次&lt;/div&gt;&lt;div&gt;迪奥 (耐用消费品 奢侈品) : 4次&lt;/div&gt;&lt;div&gt;宝格丽 (耐用消费品 奢侈品) : 3次+&lt;/div&gt;&lt;div&gt;历峰集团 (耐用消费品 奢侈品) : 3+2000元面额京东卡&lt;/div&gt;&lt;div&gt;宝格丽 (耐用消费品 奢侈品) : 3次&lt;/div&gt;&lt;div&gt;巴黎世家 (耐用消费品 奢侈品) : 3次&lt;/div&gt;&lt;div&gt;潘多拉(耐用消费品 配饰) : 3次&lt;/div&gt;&lt;div&gt;MUJI (耐用消费品 家具家居) : 3次&lt;/div&gt;&lt;div&gt;宜家 (耐用消费品 家具家居) : 4次&lt;/div&gt;" style="text;html=1;strokeColor=none;fillColor=none;align=center;verticalAlign=middle;whiteSpace=wrap;rounded=0;fontSize=16;" vertex="1" parent="1">
          <mxGeometry x="460" y="960" width="501" height="370" as="geometry" />
        </mxCell>
        <mxCell id="OLXgDvLFEpSDpQCb60n3-30" value="宾三得利" style="text;html=1;strokeColor=none;fillColor=none;align=center;verticalAlign=middle;whiteSpace=wrap;rounded=0;fontSize=16;" vertex="1" parent="1">
          <mxGeometry x="309" y="970" width="70" height="40" as="geometry" />
        </mxCell>
        <mxCell id="OLXgDvLFEpSDpQCb60n3-31" value="卡夫亨氏" style="text;html=1;strokeColor=none;fillColor=none;align=center;verticalAlign=middle;whiteSpace=wrap;rounded=0;fontSize=16;" vertex="1" parent="1">
          <mxGeometry x="419" y="930" width="70" height="40" as="geometry" />
        </mxCell>
        <mxCell id="OLXgDvLFEpSDpQCb60n3-32" value="达能" style="text;html=1;strokeColor=none;fillColor=none;align=center;verticalAlign=middle;whiteSpace=wrap;rounded=0;fontSize=16;" vertex="1" parent="1">
          <mxGeometry x="309" y="930" width="70" height="40" as="geometry" />
        </mxCell>
        <mxCell id="OLXgDvLFEpSDpQCb60n3-33" value="可口可乐" style="text;html=1;strokeColor=none;fillColor=none;align=center;verticalAlign=middle;whiteSpace=wrap;rounded=0;fontSize=16;" vertex="1" parent="1">
          <mxGeometry x="419" y="890" width="70" height="40" as="geometry" />
        </mxCell>
        <mxCell id="OLXgDvLFEpSDpQCb60n3-34" value="&lt;div&gt;医药医疗行业&lt;/div&gt;&lt;div&gt;贝朗BBRAUN (德国医疗器械)5次+&lt;/div&gt;&lt;div&gt;波士顿科学 (医疗服务) : 5次&lt;/div&gt;&lt;div&gt;诺华制药 (医药) : 3次+&lt;/div&gt;&lt;div&gt;阿斯利康(制药) : 4次&lt;/div&gt;&lt;div&gt;拜耳 (医药/化纤) : 3次+&lt;/div&gt;&lt;div&gt;丹纳赫°(医药) : 3次+京东卡&lt;/div&gt;&lt;div&gt;GSK葛兰素史克% (医药) : 4次+1000补贴&lt;/div&gt;&lt;div&gt;illumina茵美娜 (医药/检测) : 5次+&lt;/div&gt;&lt;div&gt;复星集团 (医药/综合) : 4次+&lt;/div&gt;&lt;div&gt;强生(医药日化) : 3次+&lt;/div&gt;&lt;div&gt;西安杨森 (医药) : 3次&lt;/div&gt;&lt;div&gt;日健中外制药: 3次&lt;/div&gt;&lt;div&gt;医科达°(医疗器械) : 3次，1600元代金券，外加美团买菜500元&lt;/div&gt;&lt;div&gt;美敦力 (医疗器械) 3次&lt;/div&gt;&lt;div&gt;拜耳 (医药/化工) : 3次&lt;/div&gt;&lt;div&gt;罗氏制药°/罗氏诊断(医药) : 3+366元京东等价积分&lt;/div&gt;&lt;div&gt;OSSUR (医疗器械) : 4次&lt;/div&gt;&lt;div&gt;捷迈邦美 (医疗器械) : 3次&lt;/div&gt;&lt;div&gt;赛默飞只(医疗服务耗材) : 3+500+多发一周工资&lt;/div&gt;" style="text;html=1;strokeColor=none;fillColor=none;align=center;verticalAlign=middle;whiteSpace=wrap;rounded=0;fontSize=16;" vertex="1" parent="1">
          <mxGeometry x="30" y="1080" width="410" height="520" as="geometry" />
        </mxCell>
        <mxCell id="OLXgDvLFEpSDpQCb60n3-35" value="戴尔电脑 (消费电子Q) : 4次&lt;br&gt;惠普 (消费电子) :10200元&lt;br&gt;戴森 (消费电子 家电) : 4次&lt;br&gt;传音控股 (消费电子 手机) : 3+美的电器(消费电器) : 3次+" style="text;html=1;strokeColor=none;fillColor=none;align=center;verticalAlign=middle;whiteSpace=wrap;rounded=0;fontSize=16;" vertex="1" parent="1">
          <mxGeometry x="850" y="602.5" width="255" height="105" as="geometry" />
        </mxCell>
        <mxCell id="OLXgDvLFEpSDpQCb60n3-36" value="沃尔沃(汽车) : 8次&lt;br&gt;蔚来(汽车) : 3次&lt;br&gt;阿维塔(汽车) : 4次&lt;br&gt;倍耐力 (轮胎) : 5次&lt;br&gt;捷豹路虎(汽车) : 3次&lt;br&gt;福特 (汽车) : 3次&lt;br&gt;上汽通用 (汽车) : 3次&lt;br&gt;吉利汽车9: 3次" style="text;html=1;strokeColor=none;fillColor=none;align=center;verticalAlign=middle;whiteSpace=wrap;rounded=0;fontSize=16;" vertex="1" parent="1">
          <mxGeometry x="820" y="770" width="255" height="180" as="geometry" />
        </mxCell>
        <mxCell id="OLXgDvLFEpSDpQCb60n3-37" value="&lt;div&gt;游戏、互联网、软件开发&lt;/div&gt;&lt;div&gt;Garena (游戏) : 3次(实习生也有)&lt;/div&gt;&lt;div&gt;鹰角(游戏) : 4次&lt;/div&gt;&lt;div&gt;酷拳 (游戏) : 5次&lt;/div&gt;&lt;div&gt;动视只(游戏) : 3次+2000元现金&lt;/div&gt;&lt;div&gt;完美世界&amp;amp;(游戏) : 3次&lt;/div&gt;&lt;div&gt;IGG (游戏) : 3次 (两箱零食速食以及一箱蔬果猪肉)领英(互联网) : 3次+购物卡&lt;/div&gt;&lt;div&gt;Boss直聘 (互联网) : 3次+7000元现金补贴。Rakuten乐天(互联网) : 3次&lt;/div&gt;&lt;div&gt;Google (互联网) : 3次&lt;/div&gt;&lt;div&gt;微医 (医疗互联网) : 4次&lt;/div&gt;&lt;div&gt;Oracle(产业软件) : 3次&lt;/div&gt;&lt;div&gt;Ansys(产业软件) : 3次&lt;/div&gt;&lt;div&gt;卡方科技(产业软件) : 3次&lt;/div&gt;&lt;div&gt;ZILLIZ (AI) : 3次&lt;/div&gt;" style="text;html=1;strokeColor=none;fillColor=none;align=center;verticalAlign=middle;whiteSpace=wrap;rounded=0;fontSize=16;" vertex="1" parent="1">
          <mxGeometry x="519" y="1400" width="410" height="250" as="geometry" />
        </mxCell>
        <mxCell id="OLXgDvLFEpSDpQCb60n3-38" value="&lt;div&gt;金融与高端服务&lt;/div&gt;&lt;div&gt;汇丰银行只: 5次&lt;/div&gt;&lt;div&gt;农业银行: 3次&lt;/div&gt;&lt;div&gt;嘉银金科(金融科技) : 3次Amex (金融) : 现金补助10000元Discover Financial Services (金融) :3次ICIS (金融服务Q/期货) : 3次&lt;/div&gt;&lt;div&gt;筑境设计(建筑) 3次&lt;/div&gt;&lt;div&gt;贺加斯 (广告) : 3次&lt;/div&gt;&lt;div&gt;Klue (广告) : 3次&lt;/div&gt;&lt;div&gt;群玉山 (广告) : 2次+现金补助10000元&lt;/div&gt;&lt;div&gt;贝恩 (咨询) : 3次+&lt;/div&gt;&lt;div&gt;太平人寿: 3次&lt;/div&gt;&lt;div&gt;中宏人寿: 4次&lt;/div&gt;&lt;div&gt;沃特世(检测) : 7次&lt;/div&gt;&lt;div&gt;ATA集团 (考试服务) : 3+1000元京东卡&lt;/div&gt;" style="text;html=1;strokeColor=none;fillColor=none;align=center;verticalAlign=middle;whiteSpace=wrap;rounded=0;fontSize=16;" vertex="1" parent="1">
          <mxGeometry x="9" y="1629" width="410" height="250" as="geometry" />
        </mxCell>
        <mxCell id="OLXgDvLFEpSDpQCb60n3-39" value="&lt;div&gt;综合性公司&lt;/div&gt;&lt;div&gt;GE: 4次+补贴3次&lt;/div&gt;&lt;div&gt;西门子Q(综合) : 购物卡，6次+三菱(综合商事) : 4次霍尼韦尔Q(综合电气) : 4次+艾默生%(综合电气) : 3次&lt;/div&gt;&lt;div&gt;CBRE(商业地产Q) : 4次&lt;/div&gt;&lt;div&gt;博枫资产(商业地产) : 3次DNV (挪威船级社) :6次+&lt;/div&gt;&lt;div&gt;SBM (荷兰造船) : 4次&lt;/div&gt;&lt;div&gt;上港集团 (港务运输) : 3次&lt;/div&gt;&lt;div&gt;OEC海硕(航运) : 2次+3000元现金补助安迪苏 (营养/饲料) : 6次&lt;/div&gt;&lt;div&gt;DSM帝斯曼Q (营养/生物科学) : 3+京东卡迪辅乐 (营养/益生菌) : 3次嘉吉(粮食/食品) : 3次&lt;/div&gt;" style="text;html=1;strokeColor=none;fillColor=none;align=center;verticalAlign=middle;whiteSpace=wrap;rounded=0;fontSize=16;" vertex="1" parent="1">
          <mxGeometry x="535" y="1754" width="410" height="250" as="geometry" />
        </mxCell>
      </root>
    </mxGraphModel>
  </diagram>
  <diagram id="gGbQv3ZM4eX6M6ayhFO-" name="第 2 页">
    <mxGraphModel dx="1562" dy="818" grid="1" gridSize="10" guides="1" tooltips="1" connect="1" arrows="1" fold="1" page="1" pageScale="1" pageWidth="827" pageHeight="1169" math="0" shadow="0">
      <root>
        <mxCell id="0" />
        <mxCell id="1" parent="0" />
        <mxCell id="I9nXeq7taqKS-i8R0qpw-6" style="rounded=0;orthogonalLoop=1;jettySize=auto;html=1;exitX=0.5;exitY=1;exitDx=0;exitDy=0;entryX=0.5;entryY=0;entryDx=0;entryDy=0;" parent="1" source="jaQP5pOw3-lSJj2iyBlf-1" target="I9nXeq7taqKS-i8R0qpw-4" edge="1">
          <mxGeometry relative="1" as="geometry" />
        </mxCell>
        <mxCell id="jaQP5pOw3-lSJj2iyBlf-1" value="勤力" style="rounded=1;whiteSpace=wrap;html=1;fontSize=14;" parent="1" vertex="1">
          <mxGeometry x="470" y="90" width="120" height="60" as="geometry" />
        </mxCell>
        <mxCell id="jaQP5pOw3-lSJj2iyBlf-5" style="edgeStyle=orthogonalEdgeStyle;rounded=0;orthogonalLoop=1;jettySize=auto;html=1;exitX=0.5;exitY=1;exitDx=0;exitDy=0;entryX=0.5;entryY=0;entryDx=0;entryDy=0;startArrow=classic;startFill=1;fontSize=14;" parent="1" source="jaQP5pOw3-lSJj2iyBlf-2" target="jaQP5pOw3-lSJj2iyBlf-3" edge="1">
          <mxGeometry relative="1" as="geometry" />
        </mxCell>
        <mxCell id="jaQP5pOw3-lSJj2iyBlf-11" value="制衡" style="edgeLabel;html=1;align=center;verticalAlign=middle;resizable=0;points=[];fontSize=14;" parent="jaQP5pOw3-lSJj2iyBlf-5" vertex="1" connectable="0">
          <mxGeometry x="-0.0083" y="-1" relative="1" as="geometry">
            <mxPoint as="offset" />
          </mxGeometry>
        </mxCell>
        <mxCell id="I9nXeq7taqKS-i8R0qpw-9" style="edgeStyle=orthogonalEdgeStyle;rounded=0;orthogonalLoop=1;jettySize=auto;html=1;exitX=0.5;exitY=0;exitDx=0;exitDy=0;entryX=0.5;entryY=0;entryDx=0;entryDy=0;" parent="1" source="jaQP5pOw3-lSJj2iyBlf-2" target="I9nXeq7taqKS-i8R0qpw-3" edge="1">
          <mxGeometry relative="1" as="geometry">
            <Array as="points">
              <mxPoint x="130" y="50" />
              <mxPoint x="670" y="50" />
            </Array>
          </mxGeometry>
        </mxCell>
        <mxCell id="jaQP5pOw3-lSJj2iyBlf-2" value="聪明" style="rounded=1;whiteSpace=wrap;html=1;fontSize=14;" parent="1" vertex="1">
          <mxGeometry x="70" y="90" width="120" height="60" as="geometry" />
        </mxCell>
        <mxCell id="jaQP5pOw3-lSJj2iyBlf-14" style="edgeStyle=orthogonalEdgeStyle;rounded=0;orthogonalLoop=1;jettySize=auto;html=1;exitX=0.5;exitY=1;exitDx=0;exitDy=0;entryX=0.5;entryY=0;entryDx=0;entryDy=0;" parent="1" source="jaQP5pOw3-lSJj2iyBlf-3" target="jaQP5pOw3-lSJj2iyBlf-9" edge="1">
          <mxGeometry relative="1" as="geometry" />
        </mxCell>
        <mxCell id="jaQP5pOw3-lSJj2iyBlf-3" value="安全" style="rounded=1;whiteSpace=wrap;html=1;fontSize=14;" parent="1" vertex="1">
          <mxGeometry x="70" y="240" width="120" height="60" as="geometry" />
        </mxCell>
        <mxCell id="jaQP5pOw3-lSJj2iyBlf-6" style="edgeStyle=orthogonalEdgeStyle;rounded=0;orthogonalLoop=1;jettySize=auto;html=1;exitX=0.5;exitY=1;exitDx=0;exitDy=0;fontSize=14;entryX=0.5;entryY=0;entryDx=0;entryDy=0;" parent="1" source="jaQP5pOw3-lSJj2iyBlf-4" target="I9nXeq7taqKS-i8R0qpw-1" edge="1">
          <mxGeometry relative="1" as="geometry">
            <mxPoint x="340" y="220" as="targetPoint" />
          </mxGeometry>
        </mxCell>
        <mxCell id="I9nXeq7taqKS-i8R0qpw-13" style="rounded=0;orthogonalLoop=1;jettySize=auto;html=1;exitX=0.5;exitY=1;exitDx=0;exitDy=0;entryX=0.5;entryY=0;entryDx=0;entryDy=0;" parent="1" source="jaQP5pOw3-lSJj2iyBlf-4" target="jaQP5pOw3-lSJj2iyBlf-3" edge="1">
          <mxGeometry relative="1" as="geometry" />
        </mxCell>
        <mxCell id="jaQP5pOw3-lSJj2iyBlf-4" value="拍马屁" style="rounded=1;whiteSpace=wrap;html=1;fontSize=14;" parent="1" vertex="1">
          <mxGeometry x="280" y="90" width="120" height="60" as="geometry" />
        </mxCell>
        <mxCell id="I9nXeq7taqKS-i8R0qpw-11" style="edgeStyle=orthogonalEdgeStyle;rounded=0;orthogonalLoop=1;jettySize=auto;html=1;exitX=0.5;exitY=1;exitDx=0;exitDy=0;entryX=1;entryY=0.5;entryDx=0;entryDy=0;" parent="1" source="jaQP5pOw3-lSJj2iyBlf-8" target="I9nXeq7taqKS-i8R0qpw-1" edge="1">
          <mxGeometry relative="1" as="geometry" />
        </mxCell>
        <mxCell id="I9nXeq7taqKS-i8R0qpw-12" style="edgeStyle=orthogonalEdgeStyle;rounded=0;orthogonalLoop=1;jettySize=auto;html=1;exitX=0.5;exitY=1;exitDx=0;exitDy=0;entryX=0;entryY=0.5;entryDx=0;entryDy=0;" parent="1" source="jaQP5pOw3-lSJj2iyBlf-8" target="I9nXeq7taqKS-i8R0qpw-4" edge="1">
          <mxGeometry relative="1" as="geometry" />
        </mxCell>
        <mxCell id="jaQP5pOw3-lSJj2iyBlf-8" value="谦虚" style="rounded=1;whiteSpace=wrap;html=1;fontSize=14;" parent="1" vertex="1">
          <mxGeometry x="410" y="180" width="120" height="60" as="geometry" />
        </mxCell>
        <mxCell id="jaQP5pOw3-lSJj2iyBlf-9" value="资源倾斜" style="rounded=1;whiteSpace=wrap;html=1;fontSize=14;" parent="1" vertex="1">
          <mxGeometry x="280" y="390" width="120" height="60" as="geometry" />
        </mxCell>
        <mxCell id="I9nXeq7taqKS-i8R0qpw-2" style="edgeStyle=orthogonalEdgeStyle;rounded=0;orthogonalLoop=1;jettySize=auto;html=1;exitX=0.5;exitY=1;exitDx=0;exitDy=0;entryX=0.5;entryY=0;entryDx=0;entryDy=0;" parent="1" source="I9nXeq7taqKS-i8R0qpw-1" target="jaQP5pOw3-lSJj2iyBlf-9" edge="1">
          <mxGeometry relative="1" as="geometry" />
        </mxCell>
        <mxCell id="I9nXeq7taqKS-i8R0qpw-1" value="情绪价值" style="rounded=1;whiteSpace=wrap;html=1;fontSize=14;" parent="1" vertex="1">
          <mxGeometry x="280" y="240" width="120" height="60" as="geometry" />
        </mxCell>
        <mxCell id="I9nXeq7taqKS-i8R0qpw-8" style="rounded=0;orthogonalLoop=1;jettySize=auto;html=1;exitX=0.5;exitY=1;exitDx=0;exitDy=0;entryX=0.5;entryY=0;entryDx=0;entryDy=0;" parent="1" source="I9nXeq7taqKS-i8R0qpw-3" target="I9nXeq7taqKS-i8R0qpw-4" edge="1">
          <mxGeometry relative="1" as="geometry" />
        </mxCell>
        <mxCell id="I9nXeq7taqKS-i8R0qpw-3" value="能出活" style="rounded=1;whiteSpace=wrap;html=1;fontSize=14;" parent="1" vertex="1">
          <mxGeometry x="610" y="90" width="120" height="60" as="geometry" />
        </mxCell>
        <mxCell id="I9nXeq7taqKS-i8R0qpw-7" style="edgeStyle=orthogonalEdgeStyle;rounded=0;orthogonalLoop=1;jettySize=auto;html=1;exitX=0.5;exitY=1;exitDx=0;exitDy=0;entryX=0.5;entryY=0;entryDx=0;entryDy=0;" parent="1" source="I9nXeq7taqKS-i8R0qpw-4" target="jaQP5pOw3-lSJj2iyBlf-9" edge="1">
          <mxGeometry relative="1" as="geometry" />
        </mxCell>
        <mxCell id="I9nXeq7taqKS-i8R0qpw-4" value="信任" style="rounded=1;whiteSpace=wrap;html=1;fontSize=14;" parent="1" vertex="1">
          <mxGeometry x="540" y="240" width="120" height="60" as="geometry" />
        </mxCell>
      </root>
    </mxGraphModel>
  </diagram>
</mxfile>
